<svg width="944" height="120" viewBox="0 0 944 120" fill="none" xmlns="http://www.w3.org/2000/svg">
<g clip-path="url(#clip0_597_47)">
<path d="M884.063 44.9539H899.047V59.938H884.063V104.89H854.095V29.9697H884.063V44.9539ZM944 29.9697V44.9539H899.047V29.9697H944Z" fill="black"/>
<path d="M719.237 104.889V0H749.206V59.9365H779.174V44.9524H794.158V29.9683H824.126V44.9524H809.142V59.9365H794.158V74.9207H809.142V89.9048H824.126V104.889H794.158V89.9048H779.174V74.9207H749.206V104.889H719.237Z" fill="black"/>
<path d="M614.349 104.89V89.9063H599.365V44.9539H614.349V29.9697H704.254V44.9539H629.334V89.9063H704.254V104.89H614.349Z" fill="black"/>
<path d="M494.474 104.89V89.9063H479.49V74.9221H494.474V59.938H554.411V44.9539H494.474V29.9697H569.395V44.9539H584.379V104.89H494.474ZM509.459 89.9063H554.411V74.9221H509.459V89.9063Z" fill="black"/>
<path d="M359.619 119.875V29.9697H449.524V44.9539H464.508V74.9221H449.524V89.9063H389.587V119.875H359.619ZM389.587 74.9221H434.54V44.9539H389.587V74.9221Z" fill="black"/>
<path d="M254.73 104.89V89.9063H239.746V44.9539H254.73V29.9697H344.635V44.9539H269.714V89.9063H344.635V104.89H254.73Z" fill="black"/>
<path d="M164.826 14.9841V0H194.794V14.9841H164.826ZM134.857 104.889V89.9048H164.826V44.9524H149.842V29.9683H194.794V89.9048H224.762V104.889H134.857Z" fill="black"/>
<path d="M0 119.875V29.9697H89.9048V44.9539H104.889V74.9221H89.9048V89.9063H29.9683V119.875H0ZM29.9683 74.9221H74.9207V44.9539H29.9683V74.9221Z" fill="black"/>
</g>
<defs>
<clipPath id="clip0_597_47">
<rect width="944" height="120" fill="white"/>
</clipPath>
</defs>
</svg>
