<svg width="241" height="38" viewBox="0 0 241 38" fill="none" xmlns="http://www.w3.org/2000/svg">
<g clip-path="url(#clip0_573_14)">
<path d="M0 40V10H30V15H35V25H30V30H10V40H0ZM10 25H25V15H10V25ZM55 5V0H65V5H55ZM45 35V30H55V15H50V10H65V30H75V35H45ZM85 35V30H80V15H85V10H115V15H90V30H115V35H85ZM120 40V10H150V15H155V25H150V30H130V40H120ZM130 25H145V15H130V25ZM165 35V30H160V25H165V20H185V15H165V10H190V15H195V35H165ZM170 30H185V25H170V30ZM205 35V30H200V15H205V10H235V15H210V30H235V35H205Z" fill="white"/>
</g>
<defs>
<clipPath id="clip0_573_14">
<rect width="241" height="38" fill="white"/>
</clipPath>
</defs>
</svg>
