<svg width="75" height="19" viewBox="0 0 75 19" fill="none" xmlns="http://www.w3.org/2000/svg">
<path d="M0.348011 18V0.545454H6.24574C7.61506 0.545454 8.73438 0.792613 9.60369 1.28693C10.4787 1.77557 11.1264 2.4375 11.5469 3.27273C11.9673 4.10795 12.1776 5.03977 12.1776 6.06818C12.1776 7.09659 11.9673 8.03125 11.5469 8.87216C11.1321 9.71307 10.4901 10.3835 9.62074 10.8835C8.75142 11.3778 7.63778 11.625 6.27983 11.625H2.05256V9.75H6.21165C7.14915 9.75 7.90199 9.58807 8.47017 9.2642C9.03835 8.94034 9.45028 8.50284 9.70597 7.9517C9.96733 7.39489 10.098 6.76705 10.098 6.06818C10.098 5.36932 9.96733 4.74432 9.70597 4.19318C9.45028 3.64205 9.03551 3.21023 8.46165 2.89773C7.88778 2.57955 7.12642 2.42045 6.17756 2.42045H2.46165V18H0.348011ZM15.3097 18V4.90909H17.321V18H15.3097ZM16.3324 2.72727C15.9403 2.72727 15.6023 2.59375 15.3182 2.3267C15.0398 2.05966 14.9006 1.73864 14.9006 1.36364C14.9006 0.988636 15.0398 0.667614 15.3182 0.400568C15.6023 0.133523 15.9403 0 16.3324 0C16.7244 0 17.0597 0.133523 17.3381 0.400568C17.6222 0.667614 17.7642 0.988636 17.7642 1.36364C17.7642 1.73864 17.6222 2.05966 17.3381 2.3267C17.0597 2.59375 16.7244 2.72727 16.3324 2.72727ZM26.3232 18.2727C25.0959 18.2727 24.0391 17.983 23.1527 17.4034C22.2663 16.8239 21.5845 16.0256 21.1072 15.0085C20.63 13.9915 20.3913 12.8295 20.3913 11.5227C20.3913 10.1932 20.6357 9.01989 21.1243 8.00284C21.6186 6.98011 22.3061 6.18182 23.1868 5.60795C24.0732 5.02841 25.1072 4.73864 26.2891 4.73864C27.2095 4.73864 28.0391 4.90909 28.7777 5.25C29.5163 5.59091 30.1214 6.06818 30.593 6.68182C31.0646 7.29545 31.3572 8.01136 31.4709 8.82955H29.4595C29.3061 8.23295 28.9652 7.70455 28.4368 7.24432C27.9141 6.77841 27.2095 6.54545 26.3232 6.54545C25.5391 6.54545 24.8516 6.75 24.2607 7.15909C23.6754 7.5625 23.218 8.13352 22.8885 8.87216C22.5646 9.60511 22.4027 10.4659 22.4027 11.4545C22.4027 12.4659 22.5618 13.3466 22.88 14.0966C23.2038 14.8466 23.6584 15.429 24.2436 15.8438C24.8345 16.2585 25.5277 16.4659 26.3232 16.4659C26.8459 16.4659 27.3203 16.375 27.7464 16.1932C28.1726 16.0114 28.5334 15.75 28.8288 15.4091C29.1243 15.0682 29.3345 14.6591 29.4595 14.1818H31.4709C31.3572 14.9545 31.076 15.6506 30.6271 16.2699C30.1839 16.8835 29.5959 17.3722 28.8629 17.7358C28.1357 18.0938 27.2891 18.2727 26.3232 18.2727ZM34.0874 18V0.545454H40.9737C42.2976 0.545454 43.4254 0.798295 44.3572 1.30398C45.2891 1.80398 45.9993 2.5 46.4879 3.39204C46.9822 4.27841 47.2294 5.30114 47.2294 6.46023C47.2294 7.61932 46.9794 8.64205 46.4794 9.52841C45.9794 10.4148 45.255 11.1051 44.3061 11.5994C43.3629 12.0937 42.2209 12.3409 40.88 12.3409H36.4908V9.38352H40.2834C40.9936 9.38352 41.5788 9.26136 42.0391 9.01705C42.505 8.76705 42.8516 8.4233 43.0788 7.9858C43.3118 7.54261 43.4283 7.03409 43.4283 6.46023C43.4283 5.88068 43.3118 5.375 43.0788 4.94318C42.8516 4.50568 42.505 4.16761 42.0391 3.92898C41.5732 3.68466 40.9822 3.5625 40.2663 3.5625H37.7777V18H34.0874ZM52.9396 18.2472C52.1044 18.2472 51.3601 18.1023 50.7067 17.8125C50.0533 17.517 49.5362 17.0824 49.1555 16.5085C48.7805 15.929 48.593 15.2074 48.593 14.3438C48.593 13.6165 48.7266 13.0057 48.9936 12.5114C49.2607 12.017 49.6243 11.6193 50.0845 11.3182C50.5447 11.017 51.0675 10.7898 51.6527 10.6364C52.2436 10.483 52.8629 10.375 53.5107 10.3125C54.272 10.233 54.8857 10.1591 55.3516 10.0909C55.8175 10.017 56.1555 9.90909 56.3658 9.76705C56.576 9.625 56.6811 9.41477 56.6811 9.13636V9.08523C56.6811 8.54545 56.5107 8.12784 56.1697 7.83239C55.8345 7.53693 55.3572 7.3892 54.7379 7.3892C54.0845 7.3892 53.5646 7.53409 53.1783 7.82386C52.7919 8.10795 52.5362 8.46591 52.4112 8.89773L49.0533 8.625C49.2237 7.82955 49.5589 7.14205 50.0589 6.5625C50.5589 5.97727 51.2038 5.52841 51.9936 5.21591C52.7891 4.89773 53.7095 4.73864 54.755 4.73864C55.4822 4.73864 56.1783 4.82386 56.843 4.99432C57.5135 5.16477 58.1072 5.42898 58.6243 5.78693C59.147 6.14489 59.5589 6.60511 59.8601 7.16761C60.1612 7.72443 60.3118 8.39205 60.3118 9.17045V18H56.8686V16.1847H56.7663C56.5561 16.5938 56.2749 16.9545 55.9226 17.267C55.5703 17.5739 55.147 17.8153 54.6527 17.9915C54.1584 18.1619 53.5874 18.2472 52.9396 18.2472ZM53.9794 15.7415C54.5135 15.7415 54.9851 15.6364 55.3942 15.4261C55.8033 15.2102 56.1243 14.9205 56.3572 14.5568C56.5902 14.1932 56.7067 13.7812 56.7067 13.321V11.9318C56.593 12.0057 56.4368 12.0739 56.2379 12.1364C56.0447 12.1932 55.826 12.2472 55.5817 12.2983C55.3374 12.3437 55.093 12.3864 54.8487 12.4261C54.6044 12.4602 54.3828 12.4915 54.1839 12.5199C53.7578 12.5824 53.3857 12.6818 53.0675 12.8182C52.7493 12.9545 52.5021 13.1392 52.326 13.3722C52.1499 13.5994 52.0618 13.8835 52.0618 14.2244C52.0618 14.7188 52.2408 15.0966 52.5987 15.358C52.9624 15.6136 53.4226 15.7415 53.9794 15.7415ZM69.0433 18.2557C67.7024 18.2557 66.549 17.9716 65.5831 17.4034C64.6229 16.8295 63.8842 16.0341 63.3672 15.017C62.8558 14 62.6001 12.8295 62.6001 11.5057C62.6001 10.1648 62.8587 8.98864 63.3757 7.97727C63.8984 6.96023 64.6399 6.16761 65.6001 5.59943C66.5604 5.02557 67.7024 4.73864 69.0263 4.73864C70.1683 4.73864 71.1683 4.94602 72.0263 5.36079C72.8842 5.77557 73.5632 6.35795 74.0632 7.10795C74.5632 7.85795 74.8388 8.73864 74.8899 9.75H71.4638C71.3672 9.09659 71.1115 8.57102 70.6967 8.1733C70.2876 7.76989 69.7507 7.56818 69.0859 7.56818C68.5234 7.56818 68.032 7.72159 67.6115 8.02841C67.1967 8.32955 66.8729 8.76989 66.6399 9.34943C66.407 9.92898 66.2905 10.6307 66.2905 11.4545C66.2905 12.2898 66.4041 13 66.6314 13.5852C66.8643 14.1705 67.1911 14.6165 67.6115 14.9233C68.032 15.2301 68.5234 15.3835 69.0859 15.3835C69.5007 15.3835 69.8729 15.2983 70.2024 15.1278C70.5376 14.9574 70.8132 14.7102 71.0291 14.3864C71.2507 14.0568 71.3956 13.6619 71.4638 13.2017H74.8899C74.8331 14.2017 74.5604 15.0824 74.0717 15.8438C73.5888 16.5994 72.9212 17.1903 72.0689 17.6165C71.2166 18.0426 70.2081 18.2557 69.0433 18.2557Z" fill="black"/>
</svg>
