<svg width="113" height="28" viewBox="0 0 113 28" fill="none" xmlns="http://www.w3.org/2000/svg">
<path d="M0.522017 27V0.818181H9.36861C11.4226 0.818181 13.1016 1.18892 14.4055 1.9304C15.718 2.66335 16.6896 3.65625 17.3203 4.90909C17.951 6.16193 18.2663 7.55966 18.2663 9.10227C18.2663 10.6449 17.951 12.0469 17.3203 13.3082C16.6982 14.5696 15.7351 15.5753 14.4311 16.3253C13.1271 17.0668 11.4567 17.4375 9.41974 17.4375H3.07884V14.625H9.31747C10.7237 14.625 11.853 14.3821 12.7053 13.8963C13.5575 13.4105 14.1754 12.7543 14.5589 11.9276C14.951 11.0923 15.147 10.1506 15.147 9.10227C15.147 8.05398 14.951 7.11648 14.5589 6.28977C14.1754 5.46307 13.5533 4.81534 12.6925 4.34659C11.8317 3.86932 10.6896 3.63068 9.26634 3.63068H3.69247V27H0.522017ZM22.9645 27V7.36364H25.9815V27H22.9645ZM24.4986 4.09091C23.9105 4.09091 23.4034 3.89062 22.9773 3.49006C22.5597 3.08949 22.3509 2.60795 22.3509 2.04545C22.3509 1.48295 22.5597 1.00142 22.9773 0.600851C23.4034 0.200284 23.9105 0 24.4986 0C25.0866 0 25.5895 0.200284 26.0071 0.600851C26.4332 1.00142 26.6463 1.48295 26.6463 2.04545C26.6463 2.60795 26.4332 3.08949 26.0071 3.49006C25.5895 3.89062 25.0866 4.09091 24.4986 4.09091ZM39.4847 27.4091C37.6438 27.4091 36.0586 26.9744 34.729 26.1051C33.3995 25.2358 32.3768 24.0384 31.6609 22.5128C30.945 20.9872 30.587 19.2443 30.587 17.2841C30.587 15.2898 30.9535 13.5298 31.6864 12.0043C32.4279 10.4702 33.4592 9.27273 34.7802 8.41193C36.1097 7.54261 37.6609 7.10795 39.4336 7.10795C40.8143 7.10795 42.0586 7.36364 43.1665 7.875C44.2745 8.38636 45.1822 9.10227 45.8896 10.0227C46.5969 10.9432 47.0359 12.017 47.2063 13.2443H44.1893C43.9592 12.3494 43.4478 11.5568 42.6552 10.8665C41.8711 10.1676 40.8143 9.81818 39.4847 9.81818C38.3086 9.81818 37.2773 10.125 36.391 10.7386C35.5131 11.3437 34.8271 12.2003 34.3327 13.3082C33.8469 14.4077 33.604 15.6989 33.604 17.1818C33.604 18.6989 33.8427 20.0199 34.32 21.1449C34.8058 22.2699 35.4876 23.1435 36.3654 23.7656C37.2518 24.3878 38.2915 24.6989 39.4847 24.6989C40.2688 24.6989 40.9805 24.5625 41.6197 24.2898C42.2589 24.017 42.8001 23.625 43.2433 23.1136C43.6864 22.6023 44.0018 21.9886 44.1893 21.2727H47.2063C47.0359 22.4318 46.614 23.4759 45.9407 24.4048C45.2759 25.3253 44.3938 26.0582 43.2944 26.6037C42.2035 27.1406 40.9336 27.4091 39.4847 27.4091ZM51.131 27V0.818181H61.4606C63.4464 0.818181 65.1381 1.19744 66.5359 1.95597C67.9336 2.70597 68.9989 3.75 69.7319 5.08807C70.4734 6.41761 70.8441 7.9517 70.8441 9.69034C70.8441 11.429 70.4691 12.9631 69.7191 14.2926C68.9691 15.6222 67.8825 16.6577 66.4592 17.3991C65.0444 18.1406 63.3313 18.5114 61.32 18.5114H54.7362V14.0753H60.4251C61.4904 14.0753 62.3683 13.892 63.0586 13.5256C63.7575 13.1506 64.2773 12.6349 64.6183 11.9787C64.9677 11.3139 65.1424 10.5511 65.1424 9.69034C65.1424 8.82102 64.9677 8.0625 64.6183 7.41477C64.2773 6.75852 63.7575 6.25142 63.0586 5.89347C62.3597 5.52699 61.4734 5.34375 60.3995 5.34375H56.6665V27H51.131ZM79.4094 27.3707C78.1566 27.3707 77.0401 27.1534 76.06 26.7188C75.0799 26.2756 74.3043 25.6236 73.7333 24.7628C73.1708 23.8935 72.8896 22.8111 72.8896 21.5156C72.8896 20.4247 73.0898 19.5085 73.4904 18.767C73.891 18.0256 74.4364 17.429 75.1268 16.9773C75.8171 16.5256 76.6012 16.1847 77.479 15.9545C78.3654 15.7244 79.2944 15.5625 80.266 15.4688C81.408 15.3494 82.3285 15.2386 83.0273 15.1364C83.7262 15.0256 84.2333 14.8636 84.5487 14.6506C84.864 14.4375 85.0217 14.1222 85.0217 13.7045V13.6278C85.0217 12.8182 84.766 12.1918 84.2546 11.7486C83.7518 11.3054 83.0359 11.0838 82.1069 11.0838C81.1268 11.0838 80.3469 11.3011 79.7674 11.7358C79.1879 12.1619 78.8043 12.6989 78.6168 13.3466L73.5799 12.9375C73.8356 11.7443 74.3384 10.7131 75.0884 9.84375C75.8384 8.96591 76.8058 8.29261 77.9904 7.82386C79.1836 7.34659 80.5643 7.10795 82.1325 7.10795C83.2234 7.10795 84.2674 7.2358 85.2646 7.49148C86.2702 7.74716 87.1609 8.14347 87.9364 8.6804C88.7205 9.21733 89.3384 9.90767 89.7901 10.7514C90.2418 11.5866 90.4677 12.5881 90.4677 13.7557V27H85.3029V24.277H85.1495C84.8342 24.8906 84.4123 25.4318 83.8839 25.9006C83.3555 26.3608 82.7205 26.723 81.979 26.9872C81.2376 27.2429 80.381 27.3707 79.4094 27.3707ZM80.9691 23.6122C81.7702 23.6122 82.4776 23.4545 83.0913 23.1392C83.7049 22.8153 84.1864 22.3807 84.5359 21.8352C84.8853 21.2898 85.06 20.6719 85.06 19.9815V17.8977C84.8896 18.0085 84.6552 18.1108 84.3569 18.2045C84.0671 18.2898 83.739 18.3707 83.3725 18.4474C83.006 18.5156 82.6396 18.5795 82.2731 18.6392C81.9066 18.6903 81.5742 18.7372 81.2759 18.7798C80.6367 18.8736 80.0785 19.0227 79.6012 19.2273C79.1239 19.4318 78.7532 19.7088 78.489 20.0582C78.2248 20.3991 78.0927 20.8253 78.0927 21.3366C78.0927 22.0781 78.3612 22.6449 78.8981 23.0369C79.4435 23.4205 80.1339 23.6122 80.9691 23.6122ZM103.565 27.3835C101.554 27.3835 99.8235 26.9574 98.3746 26.1051C96.9343 25.2443 95.8263 24.0511 95.0508 22.5256C94.2837 21 93.9002 19.2443 93.9002 17.2585C93.9002 15.2472 94.288 13.483 95.0636 11.9659C95.8477 10.4403 96.9599 9.25142 98.4002 8.39915C99.8406 7.53835 101.554 7.10795 103.539 7.10795C105.252 7.10795 106.752 7.41903 108.039 8.04119C109.326 8.66335 110.345 9.53693 111.095 10.6619C111.845 11.7869 112.258 13.108 112.335 14.625H107.196C107.051 13.6449 106.667 12.8565 106.045 12.2599C105.431 11.6548 104.626 11.3523 103.629 11.3523C102.785 11.3523 102.048 11.5824 101.417 12.0426C100.795 12.4943 100.309 13.1548 99.9599 14.0241C99.6104 14.8935 99.4357 15.946 99.4357 17.1818C99.4357 18.4347 99.6062 19.5 99.9471 20.3778C100.297 21.2557 100.787 21.9247 101.417 22.3849C102.048 22.8452 102.785 23.0753 103.629 23.0753C104.251 23.0753 104.809 22.9474 105.304 22.6918C105.806 22.4361 106.22 22.0653 106.544 21.5795C106.876 21.0852 107.093 20.4929 107.196 19.8026H112.335C112.25 21.3026 111.841 22.6236 111.108 23.7656C110.383 24.8991 109.382 25.7855 108.103 26.4247C106.825 27.0639 105.312 27.3835 103.565 27.3835Z" fill="#F6F3EB"/>
</svg>
