<svg width="20" height="24" viewBox="0 0 20 24" fill="none" xmlns="http://www.w3.org/2000/svg">
<path d="M0 17.28V0H6.8175C8.12812 0 9.24469 0.250312 10.1672 0.750937C11.0897 1.24594 11.7928 1.935 12.2766 2.81812C12.7659 3.69562 13.0106 4.70812 13.0106 5.85562C13.0106 7.00312 12.7631 8.01562 12.2681 8.89312C11.7731 9.77062 11.0559 10.4541 10.1166 10.9434C9.18281 11.4328 8.05219 11.6775 6.72469 11.6775H2.37937V8.74968H6.13406C6.83719 8.74968 7.41656 8.62875 7.87219 8.38687C8.33344 8.13937 8.67656 7.79906 8.90156 7.36594C9.13218 6.92719 9.2475 6.42375 9.2475 5.85562C9.2475 5.28187 9.13218 4.78125 8.90156 4.35375C8.67656 3.92062 8.33344 3.58594 7.87219 3.34969C7.41094 3.10781 6.82594 2.98687 6.11719 2.98687H3.65344V17.28H0Z" fill="white"/>
<path d="M19.2007 6.72001L19.2007 24L12.3832 24C11.0726 24 9.956 23.7497 9.0335 23.2491C8.111 22.7541 7.40787 22.065 6.92412 21.1819C6.43475 20.3044 6.19006 19.2919 6.19006 18.1444C6.19006 16.9969 6.43756 15.9844 6.93256 15.1069C7.42756 14.2294 8.14475 13.5459 9.08412 13.0566C10.0179 12.5672 11.1485 12.3225 12.476 12.3225L16.8213 12.3225L16.8213 15.2503L13.0666 15.2503C12.3635 15.2503 11.7841 15.3713 11.3285 15.6131C10.8672 15.8606 10.5241 16.2009 10.2991 16.6341C10.0685 17.0728 9.95319 17.5763 9.95319 18.1444C9.95319 18.7181 10.0685 19.2188 10.2991 19.6463C10.5241 20.0794 10.8672 20.4141 11.3285 20.6503C11.7897 20.8922 12.3747 21.0131 13.0835 21.0131L15.5472 21.0131L15.5472 6.72001L19.2007 6.72001Z" fill="white"/>
</svg>
